<?xml version="1.0" encoding="UTF-8"?><svg xmlns="http://www.w3.org/2000/svg" viewBox="0 0 1080 433"><defs><style>.cls-1{fill:#008fd5;}.cls-2{fill:#0072bc;}.cls-3{fill:#ffc20e;}.cls-4,.cls-5,.cls-6,.cls-7{mix-blend-mode:multiply;}.cls-8{isolation:isolate;}.cls-5{opacity:.2;}.cls-6{opacity:.5;}.cls-7{opacity:.8;}</style></defs><g class="cls-8"><g id="Layer_1"><g><g><path id="English_Logotypes__telebirr__3" class="cls-3" d="M1020.06,293.55c-1.17,.24-2.31,.51-3.46,.87-1.23,.36-2.37,.72-3.49,1.17-1.08,.42-2.19,.93-3.28,1.47-1.17,.57-2.19,1.14-3.22,1.74-1.02,.63-2.04,1.29-3.03,2.01-1.02,.75-1.98,1.5-2.95,2.29-.84,.75-1.77,1.59-2.65,2.46-.87,.87-1.71,1.77-2.49,2.71-.75,.87-1.5,1.83-2.19,2.8-.75,1.05-1.41,2.04-2.01,3.07-.66,1.08-1.23,2.13-1.74,3.22-.57,1.14-1.05,2.25-1.5,3.4-.39,1.08-.78,2.25-1.11,3.43-.33,1.14-.6,2.37-.81,3.58l-7.85,44.52c-.84,4.81-5.44,8.72-10.25,8.72s-8.05-3.91-7.18-8.72l13.44-76.35c.87-4.81,5.47-8.72,10.28-8.72,2.77,0,4.9,1.38,6.13,3.4,1.41-1.17,2.77-2.25,4.18-3.25,1.47-1.05,2.97-2.07,4.54-3.01,1.56-.96,3.19-1.83,4.84-2.65,1.53-.75,3.19-1.5,4.87-2.16,1.71-.69,3.43-1.26,5.2-1.77,1.62-.51,3.37-.93,5.14-1.29,4.9-1.02,8.99,2.01,9.17,6.73,.18,4.72-3.67,9.35-8.57,10.34Zm-60.57-17.07c-1.77,.36-3.52,.78-5.17,1.29-1.74,.51-3.49,1.08-5.17,1.77-1.68,.66-3.34,1.38-4.87,2.16-1.65,.81-3.25,1.68-4.87,2.65-1.53,.93-3.07,1.95-4.51,3.01-1.41,.99-2.8,2.07-4.18,3.25-1.26-2.01-3.37-3.4-6.16-3.4-4.81,0-9.41,3.91-10.25,8.72l-13.47,76.35c-.84,4.81,2.37,8.72,7.18,8.72s9.41-3.91,10.28-8.72l7.84-44.52c.21-1.2,.48-2.4,.81-3.58,.3-1.14,.69-2.31,1.11-3.46,.45-1.14,.93-2.22,1.47-3.37,.54-1.08,1.08-2.13,1.74-3.22,.6-1.02,1.26-2.01,1.98-3.01,.72-.99,1.47-1.95,2.22-2.86,.81-.93,1.62-1.83,2.53-2.71,.87-.87,1.77-1.71,2.65-2.46,.93-.78,1.89-1.53,2.91-2.29,.99-.72,2.01-1.38,3.04-1.98,1.02-.63,2.07-1.2,3.22-1.77,1.08-.54,2.19-1.02,3.34-1.47,1.08-.45,2.19-.81,3.43-1.17,1.14-.36,2.31-.63,3.49-.87,4.9-.99,8.72-5.62,8.54-10.34-.15-4.72-4.27-7.75-9.14-6.73Zm-73.1,10.73c-4.81,0-9.41,3.91-10.25,8.72l-13.47,76.35c-.84,4.81,2.37,8.72,7.18,8.72s9.41-3.91,10.25-8.72l13.47-76.35c.84-4.81-2.37-8.72-7.18-8.72Zm5.77-32.73c-4.81,0-9.41,3.91-10.25,8.72l-.96,5.47c-.87,4.81,2.35,8.72,7.18,8.72s9.41-3.91,10.25-8.72l.96-5.47c.84-4.81-2.37-8.72-7.18-8.72Zm-42.53,74.18c-5.08,28.86-32.7,52.33-61.56,52.33-17.56,0-31.47-8.75-38.65-22.03-.36,.06-.75,.21-1.14,.21-4.81,0-8.03-3.91-7.18-8.72l15.39-87.26c.84-4.81,5.44-8.72,10.28-8.72s8.03,3.91,7.18,8.72l-4.72,26.72c10.76-8.39,23.84-13.62,37.3-13.62,28.86,0,48.21,23.48,43.1,52.36Zm-17.43,0c3.4-19.27-9.5-34.93-28.74-34.93s-37.66,15.66-41.06,34.93c-3.4,19.24,9.5,34.87,28.74,34.87s37.66-15.63,41.06-34.87Zm-97.06-.03c-.84,4.81-5.44,8.72-10.28,8.72h-77.28c1.26,15.03,12.83,26.18,29.04,26.18h.03c2.37,0,4.78-.24,7.12-.69,2.35-.45,4.66-1.14,6.88-2.01,2.31-.9,4.48-1.98,6.52-3.22,4.48-2.71,9.71-1.65,11.69,2.34,2.01,4,0,9.41-4.48,12.11-3.1,1.86-6.37,3.49-9.77,4.81-3.37,1.35-6.85,2.37-10.37,3.07-3.52,.69-7.12,1.05-10.7,1.05h0c-28.86,0-48.21-23.48-43.1-52.36,5.08-28.86,32.7-52.33,61.56-52.33s48.21,23.48,43.13,52.33Zm-84.46-8.72h67.3c-1.26-15-12.84-26.18-29.04-26.18s-31.71,11.18-38.27,26.18Zm-37.42,35.08c-1.05-4.27-1.17-8.84-.33-13.56l13.8-78.24c.84-4.81-2.37-8.72-7.18-8.72s-9.44,3.91-10.28,8.72l-13.8,78.24c-1.23,7.06-1.05,13.92,.54,20.38,1.53,6.25,4.33,11.84,8.27,16.62,1.41,1.71,3.49,2.55,5.71,2.55s4.63-.87,6.64-2.55c4-3.43,4.96-8.96,2.17-12.35-2.65-3.19-4.51-6.91-5.53-11.09Zm-25.34-26.36c-.84,4.81-5.44,8.72-10.28,8.72h-77.28c1.26,15.03,12.83,26.18,29.04,26.18h.03c2.37,0,4.78-.24,7.12-.69,2.35-.45,4.66-1.14,6.88-2.01,2.31-.9,4.48-1.98,6.52-3.22,4.48-2.71,9.71-1.65,11.69,2.34,2.01,4,0,9.41-4.48,12.11-3.1,1.86-6.37,3.49-9.77,4.81-3.37,1.35-6.85,2.37-10.37,3.07-3.52,.69-7.12,1.05-10.7,1.05h0c-28.86,0-48.21-23.48-43.1-52.36,5.08-28.86,32.7-52.33,61.56-52.33s48.21,23.48,43.13,52.33Zm-84.46-8.72h67.3c-1.26-15-12.84-26.18-29.04-26.18s-31.71,11.18-38.27,26.18Zm-31.38,44.31c-3.85-1.74-7.12-4.27-9.77-7.45-2.65-3.25-4.51-6.97-5.53-11.12-1.05-4.3-1.17-8.87-.33-13.59l6.73-38.32h15.27c4.81,0,9.41-3.91,10.28-8.72,.84-4.81-2.37-8.72-7.18-8.72h-15.27l2.31-13.11c.84-4.81-2.37-8.72-7.18-8.72s-9.44,3.91-10.28,8.72l-2.31,13.11h-15.24c-4.84,0-9.44,3.91-10.28,8.72-.84,4.81,2.37,8.72,7.18,8.72h15.27l-6.76,38.32c-1.23,7.09-1.08,13.95,.51,20.38,1.53,6.22,4.33,11.81,8.3,16.65,3.97,4.81,8.9,8.57,14.67,11.21,1.02,.48,2.13,.69,3.28,.69,3.4,0,6.97-2.01,8.96-5.32,2.68-4.45,1.5-9.56-2.61-11.45Z"/><g id="English_Logotypes__telebirr__2"><g class="cls-6"><path class="cls-3" d="M1021.33,281.73c.81,0,1.79,.29,1.84,1.69,.08,2.04-1.92,4.32-4.22,4.79-1.35,.28-2.67,.59-3.89,.98-1.41,.42-2.73,.84-3.93,1.33-1.23,.48-2.5,1.06-3.69,1.65-1.31,.64-2.45,1.27-3.69,2.01-1.14,.7-2.28,1.44-3.4,2.25-1.1,.8-2.12,1.61-3.34,2.61-.92,.81-1.92,1.73-2.87,2.67-.98,.98-1.93,2.01-2.77,3-.85,.99-1.71,2.08-2.49,3.19-.86,1.19-1.6,2.31-2.23,3.4-.77,1.25-1.43,2.47-1.97,3.62-.65,1.29-1.19,2.55-1.75,3.98-.44,1.2-.87,2.5-1.22,3.76-.38,1.33-.7,2.76-.95,4.15l-7.85,44.52c-.38,2.2-2.71,4.2-4.88,4.2-.48,0-1.13-.1-1.52-.56-.32-.38-.44-1-.29-1.75l13.43-76.32c.41-2.22,2.74-4.23,4.91-4.23,.69,0,1.14,.24,1.48,.79l3.28,5.37,4.85-4.03c1.3-1.07,2.54-2.07,3.87-3,1.35-.97,2.73-1.91,4.22-2.8,1.42-.87,2.89-1.66,4.39-2.39,1.4-.69,2.92-1.38,4.51-2.01,1.53-.62,3.07-1.13,4.79-1.63,1.45-.46,3.01-.83,4.61-1.16,.26-.05,.53-.08,.77-.08m0-5.45c-.61,0-1.24,.06-1.88,.2-1.77,.36-3.52,.78-5.14,1.29-1.77,.51-3.49,1.08-5.2,1.77-1.68,.66-3.34,1.41-4.87,2.16-1.65,.81-3.27,1.68-4.84,2.65-1.56,.93-3.07,1.95-4.54,3.01-1.41,.99-2.77,2.07-4.18,3.25-1.23-2.01-3.37-3.4-6.13-3.4-4.81,0-9.41,3.91-10.28,8.72l-13.44,76.35c-.87,4.81,2.35,8.72,7.18,8.72s9.41-3.91,10.25-8.72l7.85-44.52c.21-1.2,.48-2.43,.81-3.58,.33-1.17,.72-2.34,1.11-3.43,.45-1.14,.93-2.25,1.5-3.4,.51-1.08,1.08-2.13,1.74-3.22,.6-1.02,1.26-2.01,2.01-3.07,.69-.96,1.44-1.92,2.19-2.8,.78-.93,1.62-1.83,2.49-2.71,.87-.87,1.8-1.71,2.65-2.46,.96-.78,1.92-1.53,2.95-2.29,.99-.72,2.01-1.38,3.03-2.01,1.02-.6,2.05-1.17,3.22-1.74,1.08-.54,2.19-1.05,3.28-1.47,1.11-.45,2.25-.81,3.49-1.17,1.14-.36,2.28-.63,3.46-.87,4.9-.99,8.75-5.62,8.57-10.34-.16-4.1-3.26-6.93-7.29-6.93h0Zm-59.98,5.45c.81,0,1.78,.29,1.83,1.69,.08,2.04-1.91,4.33-4.19,4.79-1.35,.28-2.71,.6-3.92,.98-1.43,.42-2.73,.85-3.89,1.34-1.29,.51-2.55,1.05-3.77,1.67-1.3,.65-2.49,1.29-3.55,1.95-1.17,.68-2.34,1.44-3.5,2.28-1.12,.83-2.17,1.65-3.25,2.55-.97,.83-1.97,1.77-2.87,2.67-1.02,.98-1.94,2-2.93,3.13-.82,.99-1.65,2.05-2.44,3.14-.83,1.14-1.59,2.28-2.22,3.37-.74,1.22-1.36,2.4-2.02,3.72-.59,1.25-1.12,2.45-1.66,3.82-.48,1.31-.92,2.65-1.24,3.86-.38,1.35-.7,2.74-.94,4.11l-7.84,44.49c-.4,2.22-2.74,4.23-4.91,4.23-.47,0-1.1-.1-1.5-.56-.33-.4-.44-1.03-.32-1.76l13.47-76.35c.38-2.2,2.71-4.2,4.88-4.2,.72,0,1.17,.24,1.54,.83l3.34,5.33,4.8-4.07c1.25-1.06,2.51-2.04,3.87-3,1.31-.96,2.72-1.89,4.07-2.72,1.5-.89,2.97-1.69,4.57-2.47,1.37-.71,2.87-1.35,4.46-1.98,1.5-.62,3.07-1.13,4.7-1.61,1.49-.46,3.05-.83,4.68-1.17,.26-.05,.51-.08,.74-.08m0-5.45c-.6,0-1.23,.06-1.86,.2-1.77,.36-3.52,.78-5.17,1.29-1.74,.51-3.49,1.08-5.17,1.77-1.68,.66-3.34,1.38-4.87,2.16-1.65,.81-3.25,1.68-4.87,2.65-1.53,.93-3.07,1.95-4.51,3.01-1.41,.99-2.8,2.07-4.18,3.25-1.26-2.01-3.37-3.4-6.16-3.4-4.81,0-9.41,3.91-10.25,8.72l-13.47,76.35c-.84,4.81,2.37,8.72,7.18,8.72s9.41-3.91,10.28-8.72l7.84-44.52c.21-1.2,.48-2.4,.81-3.58,.3-1.14,.69-2.31,1.11-3.46,.45-1.14,.93-2.22,1.47-3.37,.54-1.08,1.08-2.13,1.74-3.22,.6-1.02,1.26-2.01,1.98-3.01,.72-.99,1.47-1.95,2.22-2.86,.81-.93,1.62-1.83,2.53-2.71,.87-.87,1.77-1.71,2.65-2.46,.93-.78,1.89-1.53,2.91-2.29,.99-.72,2.01-1.38,3.04-1.98,1.02-.63,2.07-1.2,3.22-1.77,1.08-.54,2.19-1.02,3.34-1.47,1.08-.45,2.19-.81,3.43-1.17,1.14-.36,2.31-.63,3.49-.87,4.9-.99,8.72-5.62,8.54-10.34-.13-4.1-3.26-6.93-7.27-6.93h0Zm-74.96,16.38c.47,0,1.1,.1,1.5,.56,.33,.4,.44,1.03,.32,1.76l-13.47,76.35c-.38,2.2-2.71,4.2-4.88,4.2-.47,0-1.1-.1-1.49-.56-.33-.4-.44-1.03-.32-1.76l13.47-76.35c.38-2.2,2.71-4.2,4.88-4.2m0-5.46c-4.81,0-9.41,3.91-10.25,8.72l-13.47,76.35c-.84,4.81,2.37,8.72,7.18,8.72s9.41-3.91,10.25-8.72l13.47-76.35c.84-4.81-2.37-8.72-7.18-8.72h0Zm5.77-27.28c.47,0,1.1,.1,1.5,.56,.33,.4,.44,1.03,.32,1.76l-.96,5.48c-.38,2.2-2.71,4.2-4.88,4.2-.48,0-1.13-.1-1.52-.56-.32-.38-.44-1-.29-1.75l.96-5.48c.38-2.2,2.71-4.2,4.88-4.2m0-5.46c-4.81,0-9.41,3.91-10.25,8.72l-.96,5.47c-.87,4.81,2.35,8.72,7.18,8.72s9.41-3.91,10.25-8.72l.96-5.47c.84-4.81-2.37-8.72-7.18-8.72h0Zm-125.4,5.46c.47,0,1.1,.1,1.5,.56,.33,.4,.44,1.03,.32,1.76l-4.72,26.72-2.46,13.97,11.19-8.72c10.32-8.03,22.37-12.46,33.95-12.46,12.17,0,22.78,4.66,29.88,13.12,7.27,8.67,10.07,20.33,7.85,32.84-4.64,26.37-29.85,47.82-56.18,47.82-14.93,0-27.27-6.99-33.86-19.17l-1.85-3.43-3.84,.64-.25,.14c-.46,0-1.1-.1-1.49-.56-.33-.4-.44-1.03-.32-1.76l15.39-87.27c.38-2.2,2.72-4.2,4.91-4.2m24.38,109.05c21.77,0,42.59-17.67,46.43-39.37,1.95-11.04-.62-21.46-7.24-29.35-6.49-7.72-16.03-11.99-26.86-11.99-21.77,0-42.59,17.69-46.43,39.44-1.94,11.01,.62,21.41,7.22,29.28,6.49,7.73,16.04,11.99,26.89,11.99m-24.38-114.51c-4.84,0-9.44,3.91-10.28,8.72l-15.39,87.26c-.84,4.81,2.38,8.72,7.18,8.72,.39,0,.78-.15,1.14-.21,7.18,13.29,21.1,22.03,38.65,22.03,28.86,0,56.48-23.48,61.56-52.33,5.11-28.89-14.25-52.36-43.1-52.36-13.47,0-26.54,5.23-37.3,13.62l4.72-26.72c.84-4.81-2.37-8.72-7.18-8.72h0Zm24.38,109.05c-19.24,0-32.13-15.63-28.74-34.87,3.4-19.27,21.79-34.93,41.06-34.93s32.13,15.66,28.74,34.93c-3.4,19.24-21.82,34.87-41.06,34.87h0Zm-99.13-81.77c12.18,0,22.79,4.65,29.89,13.11,7.27,8.66,10.07,20.32,7.87,32.82-.38,2.2-2.72,4.2-4.91,4.2h-83.21l.5,5.91c1.54,18.35,15.71,31.18,34.5,31.18,2.69,0,5.43-.27,8.15-.79,2.6-.5,5.24-1.28,7.83-2.29,2.52-.98,5-2.2,7.36-3.63,.98-.59,1.81-.71,2.33-.71,.57,0,1.32,.14,1.68,.85,.65,1.27-.26,3.68-2.42,4.98-2.88,1.74-5.88,3.21-8.99,4.43-3.01,1.2-6.17,2.14-9.39,2.77-3.21,.63-6.45,.95-9.65,.95-12.17,0-22.78-4.66-29.88-13.12-7.27-8.67-10.07-20.33-7.85-32.84,4.64-26.37,29.85-47.82,56.19-47.82m-49.66,43.61h81.56l-.5-5.91c-1.54-18.36-15.72-31.18-34.47-31.18s-35.69,12.11-43.26,29.45l-3.34,7.64m49.66-49.07c-28.86,0-56.48,23.48-61.56,52.33-5.11,28.89,14.25,52.36,43.1,52.36,3.58,0,7.18-.36,10.7-1.05,3.52-.69,7-1.71,10.37-3.07,3.4-1.32,6.67-2.95,9.77-4.81,4.48-2.7,6.49-8.12,4.48-12.11-1.24-2.49-3.74-3.85-6.55-3.85-1.68,0-3.46,.49-5.15,1.5-2.04,1.23-4.21,2.31-6.52,3.22-2.22,.87-4.54,1.56-6.88,2.01-2.34,.45-4.75,.69-7.12,.69h-.03c-16.2,0-27.77-11.15-29.04-26.18h77.28c4.84,0,9.44-3.91,10.28-8.72,5.08-28.86-14.25-52.33-43.13-52.33h0Zm-41.33,43.61c6.55-15,22.03-26.18,38.27-26.18s27.77,11.18,29.04,26.18h-67.3Zm-31.14-59.98c.47,0,1.1,.1,1.5,.56,.33,.4,.44,1.03,.32,1.76l-13.79,78.23c-.98,5.46-.84,10.78,.4,15.8,1.22,4.98,3.45,9.44,6.62,13.26,.77,.94,.29,3.22-1.45,4.7-.98,.82-2.13,1.29-3.15,1.29-.68,0-1.19-.19-1.5-.56-3.43-4.17-5.85-9.03-7.18-14.46-1.41-5.72-1.57-11.82-.46-18.13l13.8-78.25c.38-2.2,2.72-4.2,4.91-4.2m0-5.46c-4.84,0-9.44,3.91-10.28,8.72l-13.8,78.24c-1.23,7.06-1.05,13.92,.54,20.38,1.53,6.25,4.33,11.84,8.27,16.62,1.41,1.71,3.49,2.55,5.71,2.55s4.63-.87,6.64-2.55c4-3.43,4.96-8.96,2.17-12.35-2.65-3.19-4.51-6.91-5.53-11.09-1.05-4.27-1.17-8.84-.33-13.56l13.8-78.24c.84-4.81-2.37-8.72-7.18-8.72h0Zm-74.75,27.28c12.18,0,22.79,4.65,29.89,13.11,7.27,8.66,10.07,20.32,7.87,32.82-.38,2.2-2.72,4.2-4.91,4.2h-83.21l.5,5.91c1.54,18.35,15.71,31.18,34.5,31.18,2.69,0,5.43-.27,8.15-.79,2.6-.5,5.24-1.28,7.83-2.29,2.52-.98,5-2.2,7.36-3.63,.98-.59,1.81-.71,2.33-.71,.57,0,1.32,.14,1.68,.85,.65,1.27-.26,3.68-2.42,4.98-2.88,1.74-5.88,3.21-8.99,4.43-3.01,1.2-6.17,2.14-9.39,2.77-3.21,.63-6.45,.95-9.65,.95-12.17,0-22.78-4.66-29.88-13.12-7.27-8.67-10.07-20.33-7.85-32.84,4.64-26.37,29.85-47.82,56.19-47.82m-49.66,43.61h81.56l-.5-5.91c-1.54-18.36-15.72-31.18-34.47-31.18s-35.69,12.11-43.26,29.45l-3.34,7.64m49.66-49.07c-28.86,0-56.48,23.48-61.56,52.33-5.11,28.89,14.25,52.36,43.1,52.36,3.58,0,7.18-.36,10.7-1.05,3.52-.69,7-1.71,10.37-3.07,3.4-1.32,6.67-2.95,9.77-4.81,4.48-2.7,6.49-8.12,4.48-12.11-1.24-2.49-3.74-3.85-6.55-3.85-1.68,0-3.46,.49-5.15,1.5-2.04,1.23-4.21,2.31-6.52,3.22-2.22,.87-4.54,1.56-6.88,2.01-2.34,.45-4.75,.69-7.12,.69h-.03c-16.2,0-27.77-11.15-29.04-26.18h77.28c4.84,0,9.44-3.91,10.28-8.72,5.08-28.86-14.25-52.33-43.13-52.33h0Zm-41.33,43.61c6.55-15,22.03-26.18,38.27-26.18s27.77,11.18,29.04,26.18h-67.3Zm-42.05-59.98c.47,0,1.1,.1,1.5,.56,.33,.4,.44,1.03,.32,1.76l-2.31,13.11-1.13,6.4h21.77c.47,0,1.1,.1,1.5,.56,.33,.4,.44,1.03,.32,1.74-.41,2.22-2.74,4.23-4.92,4.23h-19.85l-.8,4.52-6.73,38.31c-.98,5.45-.84,10.78,.4,15.85,1.21,4.91,3.43,9.37,6.63,13.29,3.2,3.86,7.15,6.88,11.69,8.93,.41,.19,.65,.46,.78,.89,.23,.78,.02,1.83-.56,2.81-1.1,1.83-2.99,2.67-4.28,2.67-.39,0-.71-.05-1.01-.2-5.03-2.3-9.31-5.58-12.72-9.71-3.46-4.22-5.89-9.1-7.22-14.51-1.4-5.64-1.54-11.74-.43-18.12l6.76-38.33,1.13-6.4h-21.77c-.46,0-1.1-.1-1.49-.56-.33-.4-.44-1.03-.32-1.77,.38-2.2,2.72-4.2,4.91-4.2h19.82l.8-4.51,2.31-13.11c.38-2.2,2.72-4.2,4.91-4.2m0-5.46c-4.84,0-9.44,3.91-10.28,8.72l-2.31,13.11h-15.24c-4.84,0-9.44,3.91-10.28,8.72-.84,4.81,2.37,8.72,7.18,8.72h15.27l-6.76,38.32c-1.23,7.09-1.08,13.95,.51,20.38,1.53,6.22,4.33,11.81,8.3,16.65,3.97,4.81,8.9,8.57,14.67,11.21,1.02,.48,2.13,.69,3.28,.69,3.4,0,6.97-2.01,8.96-5.32,2.68-4.45,1.5-9.56-2.61-11.45-3.85-1.74-7.12-4.27-9.77-7.45-2.65-3.25-4.51-6.97-5.53-11.12-1.05-4.3-1.17-8.87-.33-13.59l6.73-38.32h15.27c4.81,0,9.41-3.91,10.28-8.72,.84-4.81-2.37-8.72-7.18-8.72h-15.27l2.31-13.11c.84-4.81-2.37-8.72-7.18-8.72h0Z"/></g></g><g id="English_Logotypes__telebirr__1"><g class="cls-4"><path class="cls-3" d="M1021.33,279.11c2.57,0,4.36,1.69,4.46,4.2,.13,3.33-2.76,6.74-6.3,7.45-1.27,.26-2.5,.56-3.68,.93-1.33,.38-2.55,.78-3.72,1.25-1.16,.45-2.35,1-3.49,1.57-1.25,.6-2.33,1.21-3.46,1.88-1.08,.67-2.17,1.37-3.23,2.14-1.05,.78-2.05,1.56-3.15,2.46-.88,.78-1.86,1.66-2.77,2.57-.93,.93-1.83,1.89-2.64,2.86-.8,.93-1.61,1.96-2.35,3-.8,1.12-1.51,2.18-2.13,3.23-.71,1.17-1.34,2.31-1.86,3.43-.61,1.22-1.12,2.41-1.63,3.71-.41,1.14-.83,2.38-1.17,3.6-.36,1.24-.65,2.57-.89,3.88l-7.85,44.52c-.6,3.46-4.01,6.37-7.45,6.37-1.47,0-2.72-.53-3.53-1.5-.83-1-1.13-2.37-.86-3.89l13.43-76.33c.63-3.46,4.06-6.39,7.49-6.39,2.04,0,3.14,1.11,3.71,2.04l1.71,2.79,2.52-2.1c1.35-1.12,2.64-2.16,4.01-3.12,1.41-1.01,2.85-1.98,4.38-2.9,1.49-.91,3.03-1.74,4.6-2.51,1.47-.72,3.05-1.44,4.68-2.08,1.62-.65,3.25-1.19,4.99-1.7,1.53-.48,3.18-.88,4.87-1.23,.44-.09,.88-.14,1.3-.14m0-2.83c-.61,0-1.24,.06-1.88,.2-1.77,.36-3.52,.78-5.14,1.29-1.77,.51-3.49,1.08-5.2,1.77-1.68,.66-3.34,1.41-4.87,2.16-1.65,.81-3.27,1.68-4.84,2.65-1.56,.93-3.07,1.95-4.54,3.01-1.41,.99-2.77,2.07-4.18,3.25-1.23-2.01-3.37-3.4-6.13-3.4-4.81,0-9.41,3.91-10.28,8.72l-13.44,76.35c-.87,4.81,2.35,8.72,7.18,8.72s9.41-3.91,10.25-8.72l7.85-44.52c.21-1.2,.48-2.43,.81-3.58,.33-1.17,.72-2.34,1.11-3.43,.45-1.14,.93-2.25,1.5-3.4,.51-1.08,1.08-2.13,1.74-3.22,.6-1.02,1.26-2.01,2.01-3.07,.69-.96,1.44-1.92,2.19-2.8,.78-.93,1.62-1.83,2.49-2.71,.87-.87,1.8-1.71,2.65-2.46,.96-.78,1.92-1.53,2.95-2.29,.99-.72,2.01-1.38,3.03-2.01,1.02-.6,2.05-1.17,3.22-1.74,1.08-.54,2.19-1.05,3.28-1.47,1.11-.45,2.25-.81,3.49-1.17,1.14-.36,2.28-.63,3.46-.87,4.9-.99,8.75-5.62,8.57-10.34-.16-4.1-3.26-6.93-7.29-6.93h0Zm-59.98,2.83c2.58,0,4.36,1.68,4.44,4.2,.13,3.33-2.74,6.74-6.27,7.45-1.27,.26-2.53,.56-3.71,.93-1.34,.39-2.55,.79-3.67,1.25-1.22,.48-2.41,1-3.57,1.58-1.22,.61-2.35,1.22-3.38,1.86-1.1,.65-2.2,1.35-3.28,2.14-1.07,.79-2.07,1.58-3.08,2.42-.92,.8-1.88,1.69-2.77,2.58-.96,.92-1.83,1.89-2.74,2.92-.79,.96-1.58,1.96-2.34,3.01-.77,1.07-1.49,2.13-2.11,3.19-.71,1.16-1.29,2.28-1.89,3.49-.57,1.2-1.07,2.34-1.57,3.59-.45,1.23-.87,2.5-1.18,3.68-.36,1.26-.65,2.55-.88,3.86l-7.84,44.5c-.63,3.46-4.06,6.39-7.49,6.39-1.44,0-2.69-.53-3.5-1.49-.83-1-1.16-2.38-.89-3.9l13.47-76.35c.6-3.46,4.01-6.37,7.45-6.37,2.04,0,3.17,1.13,3.76,2.07l1.74,2.77,2.49-2.11c1.32-1.12,2.63-2.15,4.01-3.12,1.38-1.01,2.85-1.98,4.28-2.86,1.56-.92,3.09-1.77,4.71-2.56,1.46-.74,3.03-1.42,4.66-2.07,1.59-.65,3.25-1.19,4.94-1.68,1.56-.49,3.22-.89,4.91-1.23,.43-.09,.86-.14,1.28-.14m0-2.83c-.6,0-1.23,.06-1.86,.2-1.77,.36-3.52,.78-5.17,1.29-1.74,.51-3.49,1.08-5.17,1.77-1.68,.66-3.34,1.38-4.87,2.16-1.65,.81-3.25,1.68-4.87,2.65-1.53,.93-3.07,1.95-4.51,3.01-1.41,.99-2.8,2.07-4.18,3.25-1.26-2.01-3.37-3.4-6.16-3.4-4.81,0-9.41,3.91-10.25,8.72l-13.47,76.35c-.84,4.81,2.37,8.72,7.18,8.72s9.41-3.91,10.28-8.72l7.84-44.52c.21-1.2,.48-2.4,.81-3.58,.3-1.14,.69-2.31,1.11-3.46,.45-1.14,.93-2.22,1.47-3.37,.54-1.08,1.08-2.13,1.74-3.22,.6-1.02,1.26-2.01,1.98-3.01,.72-.99,1.47-1.95,2.22-2.86,.81-.93,1.62-1.83,2.53-2.71,.87-.87,1.77-1.71,2.65-2.46,.93-.78,1.89-1.53,2.91-2.29,.99-.72,2.01-1.38,3.04-1.98,1.02-.63,2.07-1.2,3.22-1.77,1.08-.54,2.19-1.02,3.34-1.47,1.08-.45,2.19-.81,3.43-1.17,1.14-.36,2.31-.63,3.49-.87,4.9-.99,8.72-5.62,8.54-10.34-.13-4.1-3.26-6.93-7.27-6.93h0Zm-74.96,13.76c1.44,0,2.69,.53,3.5,1.49,.83,1,1.16,2.38,.89,3.9l-13.47,76.35c-.6,3.46-4.01,6.37-7.45,6.37-1.44,0-2.69-.53-3.5-1.49-.83-1-1.16-2.38-.89-3.9l13.47-76.35c.6-3.46,4.01-6.37,7.45-6.37m0-2.83c-4.81,0-9.41,3.91-10.25,8.72l-13.47,76.35c-.84,4.81,2.37,8.72,7.18,8.72s9.41-3.91,10.25-8.72l13.47-76.35c.84-4.81-2.37-8.72-7.18-8.72h0Zm5.77-29.9c1.44,0,2.69,.53,3.5,1.5,.83,1,1.16,2.38,.89,3.9l-.96,5.47c-.6,3.46-4.01,6.37-7.45,6.37-1.47,0-2.72-.53-3.53-1.5-.83-1-1.13-2.37-.86-3.89l.96-5.47c.6-3.46,4.01-6.37,7.45-6.37m0-2.83c-4.81,0-9.41,3.91-10.25,8.72l-.96,5.47c-.87,4.81,2.35,8.72,7.18,8.72s9.41-3.91,10.25-8.72l.96-5.47c.84-4.81-2.37-8.72-7.18-8.72h0Zm-125.4,2.83c1.44,0,2.69,.53,3.5,1.5,.83,1,1.16,2.38,.89,3.89l-4.72,26.72-1.28,7.27,5.82-4.53c10.77-8.39,23.4-13.02,35.56-13.02,12.96,0,24.29,5,31.88,14.06,7.78,9.28,10.78,21.7,8.42,34.98-4.85,27.56-31.22,49.99-58.76,49.99-15.92,0-29.1-7.49-36.16-20.54l-1.64-1.62-2,.34c-1.44,0-2.69-.53-3.5-1.5-.83-1-1.16-2.38-.89-3.9l15.39-87.26c.6-3.46,4.03-6.37,7.48-6.37m24.38,109.05c20.56,0,40.23-16.69,43.85-37.21,1.8-10.26-.56-19.92-6.67-27.2-5.97-7.12-14.8-11.05-24.86-11.05-20.56,0-40.23,16.72-43.85,37.26-1.8,10.24,.56,19.88,6.65,27.14,5.98,7.13,14.82,11.05,24.88,11.05m-24.38-111.88c-4.84,0-9.44,3.91-10.28,8.72l-15.39,87.26c-.84,4.81,2.38,8.72,7.18,8.72,.39,0,.78-.15,1.14-.21,7.18,13.29,21.1,22.03,38.65,22.03,28.86,0,56.48-23.48,61.56-52.33,5.11-28.89-14.25-52.36-43.1-52.36-13.47,0-26.54,5.23-37.3,13.62l4.72-26.72c.84-4.81-2.37-8.72-7.18-8.72h0Zm24.38,109.05c-19.24,0-32.13-15.63-28.74-34.87,3.4-19.27,21.79-34.93,41.06-34.93s32.13,15.66,28.74,34.93c-3.4,19.24-21.82,34.87-41.06,34.87h0Zm-99.13-84.4c12.96,0,24.29,4.99,31.9,14.05,7.78,9.27,10.78,21.69,8.44,34.96-.6,3.46-4.03,6.37-7.49,6.37h-80.36l.26,3.07c1.42,16.95,14.52,28.77,31.89,28.77,2.53,0,5.1-.25,7.66-.74,2.44-.47,4.93-1.2,7.38-2.16,2.38-.93,4.72-2.08,6.96-3.43,1.19-.71,2.46-1.09,3.68-1.09,1.83,0,3.29,.83,4.01,2.28,1.33,2.64-.23,6.49-3.41,8.41-3,1.8-6.14,3.35-9.36,4.61-3.16,1.27-6.47,2.25-9.86,2.92-3.37,.66-6.79,1-10.15,1-12.96,0-24.29-5-31.88-14.06-7.79-9.28-10.78-21.7-8.42-34.98,4.85-27.56,31.22-49.99,58.76-49.99m-45.67,43.61h74.72l-.26-3.07c-1.43-16.94-14.53-28.77-31.86-28.77s-33.69,11.46-40.86,27.88l-1.74,3.97m45.67-46.45c-28.86,0-56.48,23.48-61.56,52.33-5.11,28.89,14.25,52.36,43.1,52.36,3.58,0,7.18-.36,10.7-1.05,3.52-.69,7-1.71,10.37-3.07,3.4-1.32,6.67-2.95,9.77-4.81,4.48-2.7,6.49-8.12,4.48-12.11-1.24-2.49-3.74-3.85-6.55-3.85-1.68,0-3.46,.49-5.15,1.5-2.04,1.23-4.21,2.31-6.52,3.22-2.22,.87-4.54,1.56-6.88,2.01-2.34,.45-4.75,.69-7.12,.69h-.03c-16.2,0-27.77-11.15-29.04-26.18h77.28c4.84,0,9.44-3.91,10.28-8.72,5.08-28.86-14.25-52.33-43.13-52.33h0Zm-41.33,43.61c6.55-15,22.03-26.18,38.27-26.18s27.77,11.18,29.04,26.18h-67.3Zm-31.14-62.6c1.44,0,2.69,.53,3.5,1.5,.83,1,1.16,2.38,.89,3.9l-13.8,78.23c-.9,5.09-.78,10.05,.38,14.73,1.12,4.58,3.17,8.7,6.09,12.22,1.79,2.17,.95,6.02-1.8,8.38-1.47,1.22-3.18,1.89-4.82,1.89-1.04,0-2.49-.27-3.52-1.53-3.68-4.47-6.27-9.69-7.7-15.49-1.5-6.08-1.66-12.54-.5-19.22l13.8-78.24c.6-3.46,4.03-6.37,7.48-6.37m0-2.83c-4.84,0-9.44,3.91-10.28,8.72l-13.8,78.24c-1.23,7.06-1.05,13.92,.54,20.38,1.53,6.25,4.33,11.84,8.27,16.62,1.41,1.71,3.49,2.55,5.71,2.55s4.63-.87,6.64-2.55c4-3.43,4.96-8.96,2.17-12.35-2.65-3.19-4.51-6.91-5.53-11.09-1.05-4.27-1.17-8.84-.33-13.56l13.8-78.24c.84-4.81-2.37-8.72-7.18-8.72h0Zm-74.75,24.66c12.96,0,24.29,4.99,31.9,14.05,7.78,9.27,10.78,21.69,8.44,34.96-.6,3.46-4.03,6.37-7.49,6.37h-80.36l.26,3.07c1.42,16.95,14.52,28.77,31.89,28.77,2.53,0,5.1-.25,7.66-.74,2.44-.47,4.93-1.2,7.38-2.16,2.38-.93,4.72-2.08,6.96-3.43,1.19-.71,2.46-1.09,3.68-1.09,1.83,0,3.29,.83,4.01,2.28,1.33,2.64-.23,6.49-3.41,8.41-3,1.8-6.14,3.35-9.36,4.61-3.15,1.27-6.47,2.25-9.86,2.92-3.37,.66-6.79,1-10.15,1-12.96,0-24.29-5-31.88-14.06-7.79-9.28-10.78-21.7-8.42-34.98,4.85-27.56,31.22-49.99,58.76-49.99m-45.67,43.61h74.72l-.26-3.07c-1.43-16.94-14.53-28.77-31.86-28.77s-33.69,11.46-40.86,27.88l-1.74,3.97m45.67-46.45c-28.86,0-56.48,23.48-61.56,52.33-5.11,28.89,14.25,52.36,43.1,52.36,3.58,0,7.18-.36,10.7-1.05,3.52-.69,7-1.71,10.37-3.07,3.4-1.32,6.67-2.95,9.77-4.81,4.48-2.7,6.49-8.12,4.48-12.11-1.24-2.49-3.74-3.85-6.55-3.85-1.68,0-3.46,.49-5.15,1.5-2.04,1.23-4.21,2.31-6.52,3.22-2.22,.87-4.54,1.56-6.88,2.01-2.34,.45-4.75,.69-7.12,.69h-.03c-16.2,0-27.77-11.15-29.04-26.18h77.28c4.84,0,9.44-3.91,10.28-8.72,5.08-28.86-14.25-52.33-43.13-52.33h0Zm-41.33,43.61c6.55-15,22.03-26.18,38.27-26.18s27.77,11.18,29.04,26.18h-67.3Zm-42.05-62.6c1.44,0,2.69,.53,3.5,1.5,.83,1,1.16,2.38,.89,3.89l-2.31,13.11-.59,3.33h18.65c1.44,0,2.69,.53,3.5,1.49,.83,1,1.16,2.38,.89,3.89-.63,3.46-4.06,6.39-7.49,6.39h-17.65l-.41,2.35-6.73,38.32c-.9,5.09-.78,10.05,.38,14.76,1.11,4.53,3.16,8.65,6.1,12.26,2.95,3.55,6.57,6.32,10.76,8.22,1.37,.62,1.95,1.7,2.19,2.49,.47,1.49,.16,3.29-.82,4.92-1.41,2.36-4.04,3.94-6.52,3.94-.78,0-1.47-.14-2.1-.44-5.39-2.47-9.99-5.98-13.65-10.43-3.71-4.52-6.31-9.75-7.74-15.54-1.48-6-1.64-12.46-.47-19.2l6.76-38.33,.59-3.33h-18.65c-1.44,0-2.69-.53-3.5-1.5-.83-1-1.16-2.38-.89-3.9,.6-3.46,4.03-6.37,7.48-6.37h17.61l.42-2.34,2.31-13.11c.6-3.46,4.03-6.37,7.48-6.37m0-2.83c-4.84,0-9.44,3.91-10.28,8.72l-2.31,13.11h-15.24c-4.84,0-9.44,3.91-10.28,8.72-.84,4.81,2.37,8.72,7.18,8.72h15.27l-6.76,38.32c-1.23,7.09-1.08,13.95,.51,20.38,1.53,6.22,4.33,11.81,8.3,16.65,3.97,4.81,8.9,8.57,14.67,11.21,1.02,.48,2.13,.69,3.28,.69,3.4,0,6.97-2.01,8.96-5.32,2.68-4.45,1.5-9.56-2.61-11.45-3.85-1.74-7.12-4.27-9.77-7.45-2.65-3.25-4.51-6.97-5.53-11.12-1.05-4.3-1.17-8.87-.33-13.59l6.73-38.32h15.27c4.81,0,9.41-3.91,10.28-8.72,.84-4.81-2.37-8.72-7.18-8.72h-15.27l2.31-13.11c.84-4.81-2.37-8.72-7.18-8.72h0Z"/></g></g></g><g><path id="Amharic_Logotypes________3" class="cls-1" d="M844.76,227.31c-2.49,2.13-5.5,3.19-8.27,3.19-1.95,0-3.76-.57-5.29-1.59h-27.23c-21.04,0-35.14-17.13-31.44-38.17l9.35-52.93c3.7-21.04,23.84-38.17,44.91-38.17h16.35c2.92,0,5.65,.57,8.12,1.71,2.35,1.05,4.39,2.59,6.04,4.6,3.52,4.24,2.31,11.12-2.67,15.42-2.49,2.13-5.5,3.22-8.3,3.22s-5.38-1.05-7.12-3.16l-.03-.03-16.23,.03c-9.02,0-17.67,7.36-19.27,16.38l-9.32,52.93c-1.59,9.02,4.48,16.35,13.5,16.35,.03,0,0,0,0,0,.03,0,0,0,0,0h28.92c2.17,0,4.21,.42,6.07,1.26,1.8,.81,3.37,2.01,4.63,3.55,3.52,4.24,2.31,11.15-2.7,15.42Zm-116.14-127.69c-24.05,0-47.07,19.57-51.31,43.61h-3.28c-6.43,0-12.9,2.49-18.22,7.03-5.02,4.27-6.22,11.18-2.71,15.45,1.77,2.1,4.36,3.16,7.15,3.16s5.77-1.05,8.27-3.19c.36-.3,.9-.63,1.65-.63h3.28l-9.62,54.53c-1.05,6.04,2.95,10.91,8.99,10.91s11.75-4.87,12.84-10.91l13.44-76.32v-.03h0c2.13-12.02,13.65-21.82,25.67-21.82s20.08,9.8,17.98,21.82h0v.03l-13.47,76.32c-1.05,6.04,2.95,10.91,8.99,10.91s11.75-4.87,12.84-10.91l13.44-76.32v-.03h0c4.27-24.05-11.87-43.61-35.92-43.61Zm-71.33,91.53c-.06-2.11-.33-4.12-.81-6.13-.51-1.95-1.2-3.82-2.04-5.53-.87-1.74-1.92-3.33-3.19-4.9-1.2-1.44-2.55-2.73-4.09-3.94-1.53-1.17-3.22-2.19-5.08-3.03-1.8-.81-3.76-1.47-5.8-1.89-5.68-1.11-12.11,2.65-14.37,8.54-2.22,5.92,.6,11.66,6.28,12.84,.69,.15,1.35,.39,1.89,.63,.6,.27,1.17,.6,1.59,.96,.57,.42,1.08,.9,1.44,1.35,.42,.51,.78,1.05,1.08,1.65,.3,.57,.51,1.2,.66,1.8,.18,.69,.27,1.38,.27,2.01,.03,.75-.03,1.5-.15,2.28-.15,.75-.36,1.5-.6,2.19-.27,.72-.63,1.41-.96,1.98-.39,.66-.87,1.29-1.38,1.89-.48,.6-1.05,1.14-1.62,1.62-.57,.51-1.2,.93-1.83,1.32-.66,.42-1.35,.75-2.07,1.05-.66,.24-1.35,.45-2.19,.6-1.38,.3-2.85,.3-4.36-.03-.69-.12-1.32-.33-1.86-.57-.63-.3-1.2-.66-1.71-1.05-.51-.39-.96-.81-1.35-1.29-.42-.51-.78-1.05-1.08-1.65-.3-.6-.51-1.23-.66-1.8-.18-.66-.27-1.35-.27-2.04-.03-.72,0-1.47,.15-2.22l4.81-27.29c3.7-21.04-10.4-38.17-31.44-38.17-5.86,0-11.63,1.44-17.04,3.85l4.54-25.64c1.05-6.04-2.95-10.91-8.99-10.91s-11.75,4.87-12.84,10.91l-19.21,109.05c-1.08,6.04,2.95,10.91,8.96,10.91s11.78-4.87,12.84-10.91l8.66-49.08c1.59-9.02,10.22-16.35,19.24-16.35s15.06,7.33,13.47,16.35l-4.81,27.29c-.39,2.22-.54,4.42-.48,6.58,.06,2.13,.33,4.18,.84,6.22,.48,1.89,1.17,3.76,2.01,5.47,.87,1.71,1.92,3.34,3.15,4.84,1.2,1.5,2.59,2.82,4.15,4,1.5,1.17,3.19,2.16,4.99,3.01,1.8,.84,3.79,1.5,5.77,1.89,2.07,.45,4.27,.69,6.52,.69s4.54-.24,6.67-.66c2.22-.45,4.45-1.08,6.55-1.92,2.1-.84,4.12-1.83,6.07-3.01,1.92-1.17,3.79-2.49,5.56-4.03,1.74-1.47,3.34-3.1,4.81-4.81,1.47-1.71,2.79-3.58,4.03-5.59,1.14-1.92,2.16-3.97,2.98-6.13,.81-2.13,1.41-4.33,1.8-6.55,.42-2.25,.57-4.42,.51-6.64Zm-131.68-6.13c-.51-1.95-1.2-3.82-2.04-5.53-.87-1.74-1.92-3.33-3.19-4.9-1.2-1.44-2.55-2.73-4.09-3.94-1.53-1.17-3.19-2.16-5.11-3.07-1.8-.81-3.73-1.44-5.77-1.86-5.68-1.11-12.11,2.65-14.37,8.54-2.22,5.92,.6,11.66,6.28,12.84,.72,.15,1.35,.39,1.86,.6,.6,.3,1.17,.63,1.62,.99,.57,.42,1.08,.9,1.44,1.35,.42,.51,.78,1.05,1.08,1.65,.3,.57,.51,1.2,.66,1.8,.18,.69,.27,1.38,.27,2.01,.03,.75-.03,1.5-.15,2.28-.15,.75-.36,1.5-.6,2.19-.27,.72-.63,1.41-.96,1.98-.39,.66-.87,1.29-1.38,1.89-.48,.6-1.05,1.14-1.62,1.62-.57,.51-1.2,.93-1.83,1.32-.66,.42-1.38,.75-2.07,1.02-.66,.27-1.35,.48-2.19,.63-1.38,.3-2.85,.3-4.36-.03-.69-.12-1.32-.33-1.86-.57-.63-.3-1.2-.66-1.71-1.05-.48-.36-.96-.81-1.35-1.29-.42-.51-.78-1.05-1.08-1.65-.3-.6-.51-1.23-.66-1.8-.18-.66-.27-1.35-.27-2.04-.03-.72,0-1.47,.15-2.22l8.66-49.11h16.14c1.53,1.08,3.43,1.59,5.41,1.59,2.77,0,5.77-1.05,8.27-3.19,5.02-4.27,6.22-11.15,2.71-15.42-1.17-1.44-2.71-2.61-4.63-3.55-1.86-.81-3.91-1.23-6.07-1.23h-17.98l2.89-16.35c1.05-6.04-2.95-10.91-8.99-10.91s-11.75,4.87-12.83,10.91l-2.89,16.35h-7.03c-2.16,0-4.36,.42-6.73,1.32-2.04,.84-3.97,2.01-5.68,3.46-5.02,4.27-6.22,11.15-2.71,15.42,2.98,3.64,8.45,4.18,13.11,1.59h5.2l-8.66,49.11c-.39,2.22-.54,4.42-.48,6.58,.06,2.13,.33,4.18,.84,6.22,.48,1.89,1.17,3.76,2.01,5.47,.87,1.71,1.92,3.34,3.13,4.81,1.2,1.5,2.61,2.85,4.18,4.03,1.5,1.17,3.19,2.16,4.99,3.01,1.8,.84,3.79,1.5,5.77,1.89,2.07,.45,4.27,.69,6.52,.69s4.54-.24,6.67-.66c2.19-.42,4.42-1.08,6.58-1.92,2.07-.84,4.12-1.83,6.04-3.01,1.92-1.17,3.79-2.49,5.56-4.03,1.74-1.47,3.34-3.1,4.81-4.81,1.47-1.71,2.8-3.58,4.03-5.59,1.14-1.92,2.16-3.97,2.97-6.13,.81-2.13,1.41-4.33,1.8-6.55,.42-2.25,.57-4.42,.51-6.64-.06-2.11-.33-4.12-.81-6.13Z"/><g id="Amharic_Logotypes________2"><g class="cls-6"><path class="cls-1" d="M843.13,105.08c2.13,0,4.1,.41,5.88,1.23,1.6,.72,2.97,1.76,4.08,3.1,1.59,1.92,.65,5.49-2.03,7.8-1.41,1.21-3.15,1.9-4.75,1.9-.89,0-2.12-.2-3.3-1.59l-1.6-1.6h-2.26l-16.22,.03c-11.75,0-22.57,9.18-24.64,20.89l-9.32,52.93c-1.04,5.92,.42,11.79,4.03,16.08,3.61,4.31,8.87,6.67,14.84,6.67h28.92c1.4,0,2.68,.26,3.83,.78,1.03,.46,1.92,1.15,2.67,2.05,1.56,1.89,.61,5.53-2.06,7.8-1.39,1.19-3.11,1.87-4.72,1.87-.83,0-1.59-.22-2.27-.68l-1.37-.92h-28.89c-8.42,0-15.75-3.21-20.63-9.02-5.04-5.99-6.96-14.07-5.43-22.75l9.35-52.93c3.26-18.57,21-33.67,39.53-33.67h16.35m0-5.46h-16.35c-21.07,0-41.21,17.13-44.91,38.17l-9.35,52.93c-3.7,21.04,10.4,38.17,31.44,38.17h27.23c1.53,1.02,3.34,1.59,5.29,1.59,2.76,0,5.77-1.05,8.27-3.19,5.02-4.27,6.22-11.18,2.7-15.42-1.26-1.53-2.82-2.73-4.63-3.55-1.86-.84-3.91-1.26-6.07-1.26h-28.92c-9.02,0-15.09-7.33-13.5-16.35l9.32-52.93c1.59-9.02,10.25-16.38,19.27-16.38l16.23-.03,.03,.03c1.74,2.1,4.33,3.16,7.12,3.16s5.8-1.08,8.3-3.22c4.99-4.3,6.19-11.18,2.67-15.42-1.65-2.01-3.7-3.55-6.04-4.6-2.46-1.14-5.2-1.71-8.12-1.71h0Zm-114.52,5.46c9.87,0,18.48,3.77,24.22,10.62,5.88,7.02,8.13,16.46,6.33,26.59l-.09,.5h0l-13.35,75.84c-.62,3.42-4.1,6.42-7.47,6.42-1.26,0-2.28-.41-2.92-1.17-.68-.81-.92-2-.69-3.34l13.47-76.32,.08-.5v-.02c1.15-7.32-.64-14.23-5.08-19.51-4.45-5.3-10.97-8.22-18.35-8.22-14.54,0-28.46,11.81-31.03,26.32l-.09,.5h0l-13.35,75.84c-.62,3.42-4.1,6.42-7.47,6.42-1.26,0-2.28-.41-2.92-1.17-.68-.81-.92-2-.69-3.34l9.62-54.52,1.13-6.4h-9.78c-1.88,0-3.66,.66-5.2,1.95-1.39,1.19-3.11,1.87-4.72,1.87-.89,0-2.13-.21-2.95-1.17-1.58-1.92-.62-5.58,2.04-7.84,4.33-3.7,9.54-5.72,14.68-5.72h7.85l.8-4.51c3.8-21.57,24.41-39.11,45.94-39.11m0-5.46c-24.05,0-47.07,19.57-51.31,43.61h-3.28c-6.43,0-12.9,2.49-18.22,7.03-5.02,4.27-6.22,11.18-2.71,15.45,1.77,2.1,4.36,3.16,7.15,3.16s5.77-1.05,8.27-3.19c.36-.3,.9-.63,1.65-.63h3.28l-9.62,54.53c-1.05,6.04,2.95,10.91,8.99,10.91s11.75-4.87,12.84-10.91l13.44-76.32v-.03c2.13-12.02,13.65-21.82,25.67-21.82s20.08,9.8,17.98,21.82v.03l-13.47,76.32c-1.05,6.04,2.95,10.91,8.99,10.91s11.75-4.87,12.84-10.91l13.44-76.32v-.03c4.27-24.05-11.87-43.61-35.92-43.61h0Zm-163.58,5.46c1.26,0,2.28,.41,2.92,1.17,.68,.81,.92,2,.69,3.33l-4.54,25.64-1.78,10.1,9.37-4.16c5.04-2.24,10.03-3.37,14.83-3.37,8.42,0,15.75,3.21,20.63,9.02,5.03,5.99,6.96,14.07,5.43,22.75l-4.79,27.17c-.22,1.1-.3,2.26-.26,3.29,0,1.18,.16,2.35,.45,3.43,.27,1.04,.63,1.99,1.06,2.85,.47,.95,1.05,1.83,1.73,2.65,.65,.79,1.39,1.51,2.27,2.18,.85,.65,1.75,1.2,2.81,1.71,1.01,.45,2.07,.77,2.91,.92,1.14,.25,2.31,.38,3.45,.38s2.19-.11,3.04-.31c1.19-.21,2.17-.5,3.33-.93,1.01-.42,1.98-.89,2.85-1.45,.9-.56,1.79-1.17,2.48-1.79,.83-.71,1.66-1.5,2.26-2.26,.71-.84,1.38-1.73,1.95-2.7,.47-.8,.97-1.78,1.39-2.92,.32-.92,.6-1.92,.84-3.16,.17-1.13,.26-2.23,.22-3.11,0-1.11-.15-2.25-.44-3.34-.28-1.11-.66-2.13-1.07-2.92-.47-.95-1.04-1.83-1.7-2.61-.66-.83-1.52-1.64-2.16-2.09-.8-.68-1.77-1.29-2.92-1.8-.98-.44-1.98-.77-3.01-.99-1.04-.21-1.79-.74-2.24-1.56-.59-1.06-.6-2.52-.05-3.99,1.14-2.98,4.25-5.22,7.24-5.22,.33,0,.66,.03,.94,.08,1.56,.32,3.13,.83,4.65,1.52,1.42,.65,2.77,1.45,3.96,2.36,1.26,.99,2.33,2.01,3.22,3.07,1.04,1.3,1.88,2.58,2.53,3.88,.68,1.4,1.24,2.92,1.63,4.4,.4,1.67,.62,3.31,.67,5.01,.05,1.9-.09,3.7-.44,5.55-.33,1.89-.85,3.76-1.54,5.58-.64,1.72-1.5,3.49-2.52,5.2-1.14,1.86-2.29,3.46-3.51,4.88-1.39,1.61-2.76,2.98-4.25,4.24-1.45,1.26-3.03,2.41-4.79,3.48-1.69,1.01-3.43,1.87-5.3,2.61-1.7,.68-3.59,1.23-5.58,1.64-1.86,.37-3.8,.56-5.62,.56s-3.64-.19-5.47-.59c-1.51-.3-3.07-.81-4.52-1.49-1.5-.7-2.83-1.49-4.03-2.43-1.22-.92-2.25-1.91-3.2-3.09-.96-1.18-1.81-2.47-2.48-3.79-.68-1.39-1.24-2.91-1.61-4.39-.41-1.63-.63-3.28-.68-5.05-.04-1.84,.08-3.68,.41-5.49l4.81-27.29c1.04-5.94-.42-11.81-4.02-16.1-3.6-4.29-8.87-6.66-14.82-6.66-11.73,0-22.54,9.16-24.61,20.86l-8.66,49.09c-.59,3.41-4.08,6.39-7.46,6.39-1.26,0-2.26-.41-2.92-1.18-.67-.81-.91-1.98-.67-3.33l19.2-109.03c.62-3.42,4.1-6.42,7.47-6.42m0-5.46c-6.01,0-11.75,4.87-12.84,10.91l-19.21,109.05c-1.08,6.04,2.95,10.91,8.96,10.91s11.78-4.87,12.84-10.91l8.66-49.08c1.59-9.02,10.22-16.35,19.24-16.35s15.06,7.33,13.47,16.35l-4.81,27.29c-.39,2.22-.54,4.42-.48,6.58,.06,2.13,.33,4.18,.84,6.22,.48,1.89,1.17,3.76,2.01,5.47,.87,1.71,1.92,3.34,3.15,4.84,1.2,1.5,2.59,2.82,4.15,4,1.5,1.17,3.19,2.16,4.99,3.01,1.8,.84,3.79,1.5,5.77,1.89,2.07,.45,4.27,.69,6.52,.69s4.54-.24,6.67-.66c2.22-.45,4.45-1.08,6.55-1.92,2.1-.84,4.12-1.83,6.07-3.01,1.92-1.17,3.79-2.49,5.56-4.03,1.74-1.47,3.34-3.1,4.81-4.81,1.47-1.71,2.79-3.58,4.03-5.59,1.14-1.92,2.16-3.97,2.98-6.13,.81-2.13,1.41-4.33,1.8-6.55,.42-2.25,.57-4.42,.51-6.64-.06-2.11-.33-4.12-.81-6.13-.51-1.95-1.2-3.82-2.04-5.53-.87-1.74-1.92-3.33-3.19-4.9-1.2-1.44-2.55-2.73-4.09-3.94-1.53-1.17-3.22-2.19-5.08-3.03-1.8-.81-3.76-1.47-5.8-1.89-.67-.13-1.35-.2-2.04-.2-5.1,0-10.34,3.54-12.33,8.73-2.22,5.92,.6,11.66,6.28,12.84,.69,.15,1.35,.39,1.89,.63,.6,.27,1.17,.6,1.59,.96,.57,.42,1.08,.9,1.44,1.35,.42,.51,.78,1.05,1.08,1.65,.3,.57,.51,1.2,.66,1.8,.18,.69,.27,1.38,.27,2.01,.03,.75-.03,1.5-.15,2.28-.15,.75-.36,1.5-.6,2.19-.27,.72-.63,1.41-.96,1.98-.39,.66-.87,1.29-1.38,1.89-.48,.6-1.05,1.14-1.62,1.62-.57,.51-1.2,.93-1.83,1.32-.66,.42-1.35,.75-2.07,1.05-.66,.24-1.35,.45-2.19,.6-.68,.14-1.37,.22-2.08,.22s-1.51-.08-2.28-.25c-.69-.12-1.32-.33-1.86-.57-.63-.3-1.2-.66-1.71-1.05-.51-.39-.96-.81-1.35-1.29-.42-.51-.78-1.05-1.08-1.65-.3-.6-.51-1.23-.66-1.8-.18-.66-.27-1.35-.27-2.04-.03-.72,0-1.47,.15-2.22l4.81-27.29c3.7-21.04-10.4-38.17-31.44-38.17-5.86,0-11.63,1.44-17.04,3.85l4.54-25.64c1.05-6.04-2.95-10.91-8.99-10.91h0Zm-76.35,5.46c1.26,0,2.28,.41,2.92,1.17,.68,.81,.92,2,.69,3.34l-2.89,16.35-1.13,6.4h24.47c1.4,0,2.71,.26,3.7,.68,1.2,.59,2.11,1.26,2.8,2.1,1.59,1.94,.66,5.51-2.04,7.81-1.39,1.19-3.11,1.87-4.72,1.87-.92,0-1.72-.21-2.27-.59l-1.41-1h-22.45l-.8,4.51-8.63,48.99c-.22,1.1-.3,2.25-.26,3.29,0,1.18,.16,2.35,.45,3.43,.27,1.04,.63,1.99,1.06,2.85,.47,.95,1.04,1.83,1.73,2.65,.65,.8,1.45,1.57,2.27,2.19,.85,.64,1.75,1.19,2.81,1.7,1.01,.45,2.07,.77,2.91,.92,1.14,.25,2.31,.38,3.45,.38s2.19-.11,3.04-.31c1.16-.2,2.24-.52,3.22-.92,1.01-.4,2.05-.89,2.96-1.47,.9-.56,1.79-1.17,2.47-1.79,.84-.71,1.67-1.5,2.27-2.26,.71-.84,1.38-1.73,1.95-2.7,.46-.8,.97-1.78,1.39-2.92,.32-.92,.6-1.92,.84-3.16,.17-1.13,.26-2.23,.22-3.11,0-1.11-.15-2.25-.44-3.34-.28-1.11-.66-2.13-1.07-2.92-.47-.95-1.04-1.83-1.7-2.61-.66-.83-1.52-1.64-2.3-2.21-.71-.56-1.55-1.09-2.95-1.77-.77-.32-1.73-.67-2.83-.9-1.04-.21-1.79-.74-2.24-1.56-.59-1.06-.6-2.52-.05-3.99,1.14-2.98,4.25-5.22,7.24-5.22,.33,0,.66,.03,.94,.08,1.6,.33,3.16,.83,4.55,1.46,1.58,.74,2.89,1.52,4.06,2.42,1.26,.99,2.33,2.01,3.21,3.07,1.04,1.3,1.88,2.58,2.53,3.88,.68,1.4,1.24,2.92,1.63,4.4,.4,1.67,.62,3.31,.67,5.01,.05,1.9-.09,3.7-.44,5.55-.33,1.9-.85,3.76-1.54,5.58-.64,1.72-1.5,3.49-2.52,5.2-1.14,1.86-2.29,3.46-3.51,4.88-1.39,1.61-2.76,2.98-4.24,4.24-1.46,1.26-3.04,2.41-4.84,3.5-1.55,.95-3.32,1.83-5.18,2.59-1.92,.74-3.82,1.3-5.66,1.65-1.86,.37-3.79,.56-5.62,.56s-3.64-.19-5.47-.59c-1.51-.3-3.07-.81-4.52-1.49-1.5-.7-2.83-1.49-4.03-2.43-1.22-.91-2.29-1.95-3.22-3.11-.95-1.17-1.79-2.45-2.46-3.76-.68-1.39-1.24-2.91-1.62-4.39-.4-1.63-.63-3.28-.68-5.05-.04-1.84,.08-3.68,.41-5.49l8.66-49.11,1.13-6.4h-13.11l-1.23,.68c-1.08,.61-2.24,.92-3.33,.92-.88,0-2.1-.21-2.92-1.21-1.59-1.94-.66-5.51,2.01-7.79,1.29-1.09,2.72-1.95,4.11-2.53,1.71-.65,3.28-.96,4.79-.96h11.61l.8-4.51,2.88-16.34c.62-3.42,4.1-6.42,7.47-6.42m0-5.46c-6.01,0-11.75,4.87-12.83,10.91l-2.89,16.35h-7.03c-2.16,0-4.36,.42-6.73,1.32-2.04,.84-3.97,2.01-5.68,3.46-5.02,4.27-6.22,11.15-2.71,15.42,1.74,2.13,4.34,3.2,7.13,3.2,1.98,0,4.04-.53,5.97-1.61h5.2l-8.66,49.11c-.39,2.22-.54,4.42-.48,6.58,.06,2.13,.33,4.18,.84,6.22,.48,1.89,1.17,3.76,2.01,5.47,.87,1.71,1.92,3.34,3.13,4.81,1.2,1.5,2.61,2.85,4.18,4.03,1.5,1.17,3.19,2.16,4.99,3.01,1.8,.84,3.79,1.5,5.77,1.89,2.07,.45,4.27,.69,6.52,.69s4.54-.24,6.67-.66c2.19-.42,4.42-1.08,6.58-1.92,2.07-.84,4.12-1.83,6.04-3.01,1.92-1.17,3.79-2.49,5.56-4.03,1.74-1.47,3.34-3.1,4.81-4.81,1.47-1.71,2.8-3.58,4.03-5.59,1.14-1.92,2.16-3.97,2.97-6.13,.81-2.13,1.41-4.33,1.8-6.55,.42-2.25,.57-4.42,.51-6.64-.06-2.11-.33-4.12-.81-6.13-.51-1.95-1.2-3.82-2.04-5.53-.87-1.74-1.92-3.33-3.19-4.9-1.2-1.44-2.55-2.73-4.09-3.94-1.53-1.17-3.19-2.16-5.11-3.07-1.8-.81-3.73-1.44-5.77-1.86-.67-.13-1.35-.2-2.04-.2-5.1,0-10.35,3.54-12.33,8.73-2.22,5.92,.6,11.66,6.28,12.84,.72,.15,1.35,.39,1.86,.6,.6,.3,1.17,.63,1.62,.99,.57,.42,1.08,.9,1.44,1.35,.42,.51,.78,1.05,1.08,1.65,.3,.57,.51,1.2,.66,1.8,.18,.69,.27,1.38,.27,2.01,.03,.75-.03,1.5-.15,2.28-.15,.75-.36,1.5-.6,2.19-.27,.72-.63,1.41-.96,1.98-.39,.66-.87,1.29-1.38,1.89-.48,.6-1.05,1.14-1.62,1.62-.57,.51-1.2,.93-1.83,1.32-.66,.42-1.38,.75-2.07,1.02-.66,.27-1.35,.48-2.19,.63-.68,.14-1.37,.22-2.08,.22s-1.51-.08-2.28-.25c-.69-.12-1.32-.33-1.86-.57-.63-.3-1.2-.66-1.71-1.05-.48-.36-.96-.81-1.35-1.29-.42-.51-.78-1.05-1.08-1.65-.3-.6-.51-1.23-.66-1.8-.18-.66-.27-1.35-.27-2.04-.03-.72,0-1.47,.15-2.22l8.66-49.11h16.14c1.53,1.08,3.43,1.59,5.41,1.59,2.77,0,5.77-1.05,8.27-3.19,5.02-4.27,6.22-11.15,2.71-15.42-1.17-1.44-2.71-2.61-4.63-3.55-1.86-.81-3.91-1.23-6.07-1.23h-17.98l2.89-16.35c1.05-6.04-2.95-10.91-8.99-10.91h0Z"/></g></g><g id="Amharic_Logotypes________1"><g class="cls-4"><path class="cls-1" d="M843.13,102.46c2.52,0,4.85,.49,6.96,1.47,1.98,.89,3.66,2.17,5.02,3.82,2.52,3.04,1.47,8.18-2.34,11.45-1.89,1.61-4.24,2.54-6.46,2.54-2.04,0-3.8-.76-5.15-2.36l-.83-.83h-1.18l-16.22,.04c-10.34,0-20.24,8.39-22.06,18.73l-9.32,52.93c-.92,5.24,.3,10.2,3.46,13.95,3.1,3.7,7.66,5.73,12.84,5.73h28.92c1.77,0,3.42,.35,4.91,1.01,1.4,.63,2.61,1.56,3.61,2.77,2.53,3.05,1.47,8.19-2.37,11.45-1.86,1.59-4.2,2.51-6.42,2.51-1.35,0-2.61-.38-3.72-1.12l-.71-.47h-28.09c-9.21,0-17.25-3.54-22.64-9.96-5.54-6.6-7.67-15.43-6.01-24.88l9.35-52.94c3.47-19.76,22.36-35.83,42.11-35.83h16.35m0-2.83h-16.35c-21.07,0-41.21,17.13-44.91,38.17l-9.35,52.93c-3.7,21.04,10.4,38.17,31.44,38.17h27.23c1.53,1.02,3.34,1.59,5.29,1.59,2.76,0,5.77-1.05,8.27-3.19,5.02-4.27,6.22-11.18,2.7-15.42-1.26-1.53-2.82-2.73-4.63-3.55-1.86-.84-3.91-1.26-6.07-1.26h-28.92c-9.02,0-15.09-7.33-13.5-16.35l9.32-52.93c1.59-9.02,10.25-16.38,19.27-16.38l16.23-.03,.03,.03c1.74,2.1,4.33,3.16,7.12,3.16s5.8-1.08,8.3-3.22c4.99-4.3,6.19-11.18,2.67-15.42-1.65-2.01-3.7-3.55-6.04-4.6-2.46-1.14-5.2-1.71-8.12-1.71h0Zm-114.52,2.83c10.66,0,19.97,4.11,26.23,11.56,6.39,7.63,8.84,17.82,6.9,28.76l-13.44,76.3c-.83,4.65-5.43,8.58-10.04,8.58-2.03,0-3.78-.75-4.93-2.11-1.19-1.41-1.63-3.36-1.26-5.47l13.47-76.35c1.17-6.73-.4-13.07-4.43-17.86-3.94-4.7-9.75-7.28-16.34-7.28-13.33,0-26.1,10.84-28.46,24.2l-13.44,76.3c-.83,4.65-5.42,8.58-10.04,8.58-2.03,0-3.78-.75-4.93-2.11-1.19-1.41-1.63-3.36-1.26-5.48l9.62-54.53,.59-3.32h-6.66c-.88,0-2.19,.22-3.49,1.31-1.89,1.62-4.17,2.51-6.43,2.51-2.04,0-3.82-.77-4.97-2.13-2.53-3.07-1.48-8.23,2.36-11.49,4.8-4.1,10.62-6.36,16.37-6.36h5.66l.41-2.35c4.01-22.75,25.77-41.27,48.51-41.27m0-2.83c-24.05,0-47.07,19.57-51.31,43.61h-3.28c-6.43,0-12.9,2.49-18.22,7.03-5.02,4.27-6.22,11.18-2.71,15.45,1.77,2.1,4.36,3.16,7.15,3.16s5.77-1.05,8.27-3.19c.36-.3,.9-.63,1.65-.63h3.28l-9.62,54.53c-1.05,6.04,2.95,10.91,8.99,10.91s11.75-4.87,12.84-10.91l13.44-76.32v-.03c2.13-12.02,13.65-21.82,25.67-21.82s20.08,9.8,17.98,21.82v.03l-13.47,76.32c-1.05,6.04,2.95,10.91,8.99,10.91s11.75-4.87,12.84-10.91l13.44-76.32v-.03c4.27-24.05-11.87-43.61-35.92-43.61h0Zm-163.58,2.83c2.03,0,3.78,.75,4.93,2.11,1.19,1.41,1.63,3.36,1.26,5.47l-4.54,25.64-.92,5.25,4.87-2.16c5.38-2.39,10.73-3.61,15.89-3.61,9.2,0,17.25,3.54,22.64,9.96,5.54,6.6,7.66,15.44,6,24.89l-4.79,27.23c-.18,.9-.25,1.85-.2,2.78,0,.95,.12,1.89,.36,2.77,.23,.86,.52,1.65,.87,2.35,.39,.77,.86,1.49,1.42,2.17,.52,.63,1.11,1.21,1.83,1.76,.7,.53,1.44,.99,2.28,1.39,.82,.36,1.67,.62,2.41,.75,.95,.21,1.93,.32,2.89,.32s1.81-.1,2.58-.27c1.02-.18,1.86-.44,2.79-.77,.87-.36,1.71-.77,2.48-1.25,.77-.48,1.53-1,2.16-1.56,.71-.6,1.41-1.28,1.96-1.96,.62-.72,1.19-1.49,1.68-2.31,.4-.69,.83-1.53,1.18-2.47,.28-.81,.53-1.69,.73-2.7,.15-.96,.22-1.89,.18-2.71,0-.88-.12-1.82-.35-2.7-.22-.92-.53-1.74-.87-2.39-.39-.77-.86-1.49-1.41-2.16-.53-.65-1.21-1.29-1.81-1.74-.61-.51-1.38-.98-2.29-1.4-.56-.25-1.44-.59-2.47-.82-1.79-.37-3.17-1.35-4-2.85-.96-1.74-1.03-3.99-.21-6.19,1.53-4,5.6-6.91,9.69-6.91,.5,0,1,.04,1.47,.14,1.74,.35,3.49,.93,5.21,1.7,1.6,.72,3.12,1.63,4.49,2.68,1.41,1.1,2.61,2.25,3.63,3.49,1.17,1.45,2.11,2.89,2.85,4.37,.77,1.56,1.39,3.24,1.83,4.94,.44,1.84,.68,3.66,.74,5.54,.05,2.1-.1,4.07-.47,6.08-.36,2.05-.92,4.09-1.66,6.04-.7,1.86-1.63,3.77-2.74,5.65-1.21,1.98-2.44,3.69-3.76,5.22-1.48,1.72-2.95,3.19-4.52,4.52-1.56,1.35-3.26,2.58-5.16,3.74-1.81,1.09-3.67,2.01-5.67,2.81-1.85,.74-3.88,1.33-6.05,1.77-2.01,.4-4.13,.61-6.13,.61s-4-.21-5.97-.64c-1.72-.34-3.49-.92-5.12-1.68-1.68-.79-3.18-1.68-4.49-2.7-1.4-1.05-2.59-2.19-3.65-3.52-1.08-1.32-2.04-2.78-2.8-4.29-.76-1.55-1.39-3.25-1.81-4.91-.45-1.83-.71-3.66-.76-5.62-.05-2.01,.1-4.04,.44-6.01l4.81-27.28c.92-5.25-.3-10.21-3.45-13.96-3.1-3.69-7.64-5.72-12.81-5.72-10.32,0-20.21,8.39-22.03,18.7l-8.66,49.09c-.8,4.64-5.4,8.57-10.04,8.57-2.03,0-3.77-.76-4.92-2.13-1.18-1.41-1.62-3.34-1.24-5.46l19.2-109.04c.83-4.65,5.43-8.58,10.05-8.58m0-2.83c-6.01,0-11.75,4.87-12.84,10.91l-19.21,109.05c-1.08,6.04,2.95,10.91,8.96,10.91s11.78-4.87,12.84-10.91l8.66-49.08c1.59-9.02,10.22-16.35,19.24-16.35s15.06,7.33,13.47,16.35l-4.81,27.29c-.39,2.22-.54,4.42-.48,6.58,.06,2.13,.33,4.18,.84,6.22,.48,1.89,1.17,3.76,2.01,5.47,.87,1.71,1.92,3.34,3.15,4.84,1.2,1.5,2.59,2.82,4.15,4,1.5,1.17,3.19,2.16,4.99,3.01,1.8,.84,3.79,1.5,5.77,1.89,2.07,.45,4.27,.69,6.52,.69s4.54-.24,6.67-.66c2.22-.45,4.45-1.08,6.55-1.92,2.1-.84,4.12-1.83,6.07-3.01,1.92-1.17,3.79-2.49,5.56-4.03,1.74-1.47,3.34-3.1,4.81-4.81,1.47-1.71,2.79-3.58,4.03-5.59,1.14-1.92,2.16-3.97,2.98-6.13,.81-2.13,1.41-4.33,1.8-6.55,.42-2.25,.57-4.42,.51-6.64-.06-2.11-.33-4.12-.81-6.13-.51-1.95-1.2-3.82-2.04-5.53-.87-1.74-1.92-3.33-3.19-4.9-1.2-1.44-2.55-2.73-4.09-3.94-1.53-1.17-3.22-2.19-5.08-3.03-1.8-.81-3.76-1.47-5.8-1.89-.67-.13-1.35-.2-2.04-.2-5.1,0-10.34,3.54-12.33,8.73-2.22,5.92,.6,11.66,6.28,12.84,.69,.15,1.35,.39,1.89,.63,.6,.27,1.17,.6,1.59,.96,.57,.42,1.08,.9,1.44,1.35,.42,.51,.78,1.05,1.08,1.65,.3,.57,.51,1.2,.66,1.8,.18,.69,.27,1.38,.27,2.01,.03,.75-.03,1.5-.15,2.28-.15,.75-.36,1.5-.6,2.19-.27,.72-.63,1.41-.96,1.98-.39,.66-.87,1.29-1.38,1.89-.48,.6-1.05,1.14-1.62,1.62-.57,.51-1.2,.93-1.83,1.32-.66,.42-1.35,.75-2.07,1.05-.66,.24-1.35,.45-2.19,.6-.68,.14-1.37,.22-2.08,.22s-1.51-.08-2.28-.25c-.69-.12-1.32-.33-1.86-.57-.63-.3-1.2-.66-1.71-1.05-.51-.39-.96-.81-1.35-1.29-.42-.51-.78-1.05-1.08-1.65-.3-.6-.51-1.23-.66-1.8-.18-.66-.27-1.35-.27-2.04-.03-.72,0-1.47,.15-2.22l4.81-27.29c3.7-21.04-10.4-38.17-31.44-38.17-5.86,0-11.63,1.44-17.04,3.85l4.54-25.64c1.05-6.04-2.95-10.91-8.99-10.91h0Zm-76.35,2.83c2.03,0,3.78,.75,4.93,2.11,1.19,1.41,1.63,3.36,1.26,5.47l-2.89,16.35-.59,3.33h21.36c1.76,0,3.42,.34,4.84,.95,1.55,.75,2.75,1.66,3.67,2.79,2.53,3.07,1.46,8.21-2.36,11.46-1.86,1.59-4.2,2.51-6.43,2.51-1.47,0-2.78-.38-3.77-1.07l-.74-.52h-19.43l-.41,2.35-8.64,49.05c-.18,.9-.25,1.85-.2,2.78,0,.95,.12,1.89,.36,2.77,.23,.86,.52,1.65,.86,2.35,.39,.77,.86,1.49,1.42,2.17,.52,.64,1.16,1.25,1.83,1.76,.7,.53,1.44,.99,2.28,1.39,.82,.36,1.67,.62,2.41,.75,.95,.21,1.93,.32,2.89,.32s1.81-.1,2.58-.27c.99-.17,1.87-.43,2.73-.78,.85-.33,1.74-.74,2.53-1.25,.77-.48,1.53-1,2.17-1.56,.71-.6,1.41-1.28,1.96-1.96,.62-.72,1.19-1.49,1.68-2.31,.4-.69,.83-1.53,1.18-2.47,.28-.81,.53-1.69,.73-2.7,.15-.96,.22-1.89,.18-2.71,0-.88-.12-1.82-.35-2.7-.23-.92-.53-1.74-.87-2.39-.39-.77-.86-1.49-1.41-2.16-.52-.65-1.21-1.29-1.89-1.8-.56-.45-1.26-.88-2.31-1.4-.65-.26-1.45-.56-2.37-.76-1.79-.37-3.17-1.35-4-2.85-.96-1.74-1.03-3.99-.21-6.19,1.53-4,5.6-6.91,9.69-6.91,.5,0,1,.04,1.46,.14,1.79,.37,3.53,.92,5.14,1.65,1.75,.82,3.21,1.69,4.56,2.73,1.41,1.1,2.61,2.25,3.63,3.49,1.17,1.45,2.11,2.89,2.85,4.37,.77,1.56,1.39,3.24,1.83,4.94,.44,1.84,.68,3.66,.74,5.54,.05,2.1-.1,4.07-.47,6.08-.36,2.05-.92,4.09-1.66,6.04-.7,1.86-1.63,3.77-2.74,5.65-1.21,1.98-2.44,3.69-3.76,5.22-1.48,1.72-2.95,3.19-4.52,4.52-1.56,1.35-3.26,2.58-5.18,3.75-1.68,1.02-3.58,1.96-5.6,2.78-2.07,.8-4.11,1.41-6.1,1.79-2.01,.4-4.13,.61-6.13,.61s-4-.21-5.97-.64c-1.72-.34-3.49-.92-5.12-1.68-1.68-.79-3.18-1.68-4.49-2.7-1.39-1.04-2.62-2.23-3.68-3.56-1.07-1.31-2.01-2.75-2.77-4.26-.76-1.55-1.39-3.25-1.81-4.91-.45-1.83-.71-3.66-.76-5.62-.05-2.01,.1-4.04,.44-6.01l8.66-49.11,.59-3.32h-9.32l-.64,.35c-1.47,.82-3.07,1.25-4.6,1.25-2.04,0-3.8-.77-4.94-2.16-2.53-3.07-1.47-8.21,2.34-11.45,1.5-1.26,3.16-2.28,4.86-2.97,2.01-.77,3.89-1.14,5.72-1.14h9.42l.41-2.34,2.89-16.34c.83-4.65,5.42-8.58,10.04-8.58m0-2.83c-6.01,0-11.75,4.87-12.83,10.91l-2.89,16.35h-7.03c-2.16,0-4.36,.42-6.73,1.32-2.04,.84-3.97,2.01-5.68,3.46-5.02,4.27-6.22,11.15-2.71,15.42,1.74,2.13,4.34,3.2,7.13,3.2,1.98,0,4.04-.53,5.97-1.61h5.2l-8.66,49.11c-.39,2.22-.54,4.42-.48,6.58,.06,2.13,.33,4.18,.84,6.22,.48,1.89,1.17,3.76,2.01,5.47,.87,1.71,1.92,3.34,3.13,4.81,1.2,1.5,2.61,2.85,4.18,4.03,1.5,1.17,3.19,2.16,4.99,3.01,1.8,.84,3.79,1.5,5.77,1.89,2.07,.45,4.27,.69,6.52,.69s4.54-.24,6.67-.66c2.19-.42,4.42-1.08,6.58-1.92,2.07-.84,4.12-1.83,6.04-3.01,1.92-1.17,3.79-2.49,5.56-4.03,1.74-1.47,3.34-3.1,4.81-4.81,1.47-1.71,2.8-3.58,4.03-5.59,1.14-1.92,2.16-3.97,2.97-6.13,.81-2.13,1.41-4.33,1.8-6.55,.42-2.25,.57-4.42,.51-6.64-.06-2.11-.33-4.12-.81-6.13-.51-1.95-1.2-3.82-2.04-5.53-.87-1.74-1.92-3.33-3.19-4.9-1.2-1.44-2.55-2.73-4.09-3.94-1.53-1.17-3.19-2.16-5.11-3.07-1.8-.81-3.73-1.44-5.77-1.86-.67-.13-1.35-.2-2.04-.2-5.1,0-10.35,3.54-12.33,8.73-2.22,5.92,.6,11.66,6.28,12.84,.72,.15,1.35,.39,1.86,.6,.6,.3,1.17,.63,1.62,.99,.57,.42,1.08,.9,1.44,1.35,.42,.51,.78,1.05,1.08,1.65,.3,.57,.51,1.2,.66,1.8,.18,.69,.27,1.38,.27,2.01,.03,.75-.03,1.5-.15,2.28-.15,.75-.36,1.5-.6,2.19-.27,.72-.63,1.41-.96,1.98-.39,.66-.87,1.29-1.38,1.89-.48,.6-1.05,1.14-1.62,1.62-.57,.51-1.2,.93-1.83,1.32-.66,.42-1.38,.75-2.07,1.02-.66,.27-1.35,.48-2.19,.63-.68,.14-1.37,.22-2.08,.22s-1.51-.08-2.28-.25c-.69-.12-1.32-.33-1.86-.57-.63-.3-1.2-.66-1.71-1.05-.48-.36-.96-.81-1.35-1.29-.42-.51-.78-1.05-1.08-1.65-.3-.6-.51-1.23-.66-1.8-.18-.66-.27-1.35-.27-2.04-.03-.72,0-1.47,.15-2.22l8.66-49.11h16.14c1.53,1.08,3.43,1.59,5.41,1.59,2.77,0,5.77-1.05,8.27-3.19,5.02-4.27,6.22-11.15,2.71-15.42-1.17-1.44-2.71-2.61-4.63-3.55-1.86-.81-3.91-1.23-6.07-1.23h-17.98l2.89-16.35c1.05-6.04-2.95-10.91-8.99-10.91h0Z"/></g></g></g><g><path id="LogoMark_Icon__3" class="cls-2" d="M154.44,170.59H45.39c-6.01,0-11.75,4.87-12.81,10.91-1.08,6.01,2.95,10.88,8.99,10.88,54.1,0,90.39,44.02,80.83,98.16-1.05,6.01,2.95,10.88,8.99,10.88s11.75-4.87,12.84-10.88l19.21-109.04c1.08-6.04-2.95-10.91-8.99-10.91Zm38.5-32.73l19.24-109.05c1.05-6.04,6.79-10.91,12.84-10.91s10.04,4.87,8.99,10.91c-9.56,54.11,26.72,98.14,80.86,98.14h27.26c6.01,0,10.04,4.87,8.96,10.91-1.05,6.01-6.79,10.88-12.8,10.88H201.93c-6.01,0-10.04-4.87-8.99-10.88Zm71.9,272.64c-66.16,0-110.49-53.8-98.8-119.96l19.21-109.04c1.08-6.04,6.79-10.91,12.84-10.91h163.58c6.04,0,10.07,4.87,8.99,10.91-1.05,6.01-6.79,10.88-12.8,10.88h-54.53c-54.13,0-105.92,44.02-115.48,98.16-9.53,53.95,26.51,97.87,80.38,98.14,33.57-1.62,61.92-17.49,78.69-49.23,1.53-2.92,2.86-5.89,4-8.93,1.26-3.7,2.43-7.45,3.13-11.33,.06-.3,.09-.57,.15-.87,5.2-31.17-15.75-56.45-46.98-56.45-24.29,0-47.55,19.75-51.82,44.07-3.31,18.58,9.17,33.73,27.77,33.73,4.21,0,7.03,3.4,6.28,7.63-.75,4.21-4.78,7.63-8.99,7.63-27.02,0-45.12-22-40.34-48.99,5.74-32.73,37.06-59.34,69.8-59.34,39.83,0,66.52,32.4,59.51,72.26-10.97,62.13-69.04,91.65-104.57,91.65Z"/><g id="LogoMark_Icon__2"><g class="cls-5"><path class="cls-2" d="M152.35,181.5l-18.03,102.39c2.63-26.48-4.52-51.17-20.54-70.25-16.68-19.88-40.95-31.19-68.64-32.09,.09-.02,.17-.04,.25-.04h106.96m2.09-10.9H45.39c-6.01,0-11.75,4.87-12.81,10.91-1.08,6.01,2.95,10.88,8.99,10.88,54.1,0,90.39,44.02,80.83,98.16-1.05,6.01,2.95,10.88,8.99,10.88s11.75-4.87,12.84-10.88l19.21-109.04c1.08-6.04-2.95-10.91-8.99-10.91h0ZM222.09,35.46c-2.64,26.47,4.52,51.14,20.54,70.23,16.97,20.25,41.81,31.61,70.12,32.15h-108.73l18.06-102.38m2.93-17.56c-6.04,0-11.78,4.87-12.84,10.91l-19.24,109.05c-1.05,6.01,2.98,10.88,8.99,10.88h136.34c6.01,0,11.75-4.87,12.8-10.88,1.08-6.04-2.95-10.91-8.96-10.91h-27.26c-54.13,0-90.41-44.03-80.86-98.14,1.05-6.04-2.97-10.91-8.99-10.91h0Zm76.2,163.6c-55.46,1.07-108.22,44.08-122.22,98.42l17-96.49c.16-.89,1.41-1.93,2.1-1.93h103.13m-125.6,119.39c-1.63,24.98,5.54,48.2,20.7,66.37,16.95,20.31,41.84,31.75,70.76,32.3-.75,.03-1.49,.04-2.23,.04-28.38,0-53.13-10.88-69.71-30.64-15.32-18.27-22.12-42.18-19.52-68.07m186.05-130.29H198.09c-6.04,0-11.75,4.87-12.84,10.91l-19.21,109.04c-11.69,66.16,32.64,119.96,98.8,119.96,35.53,0,93.6-29.52,104.57-91.65,7-39.86-19.69-72.26-59.51-72.26-32.73,0-64.05,26.6-69.8,59.34-4.78,26.99,13.31,48.99,40.34,48.99,4.21,0,8.24-3.43,8.99-7.63,.75-4.24-2.07-7.63-6.28-7.63-18.61,0-31.08-15.15-27.77-33.73,4.27-24.32,27.53-44.07,51.82-44.07,31.23,0,52.18,25.28,46.98,56.45-.06,.3-.09,.57-.15,.87-.69,3.88-1.86,7.63-3.13,11.33-1.14,3.04-2.46,6.01-4,8.93-16.77,31.74-45.12,47.61-78.69,49.23-53.86-.27-89.9-44.19-80.38-98.14,9.56-54.13,61.35-98.16,115.48-98.16h54.53c6.01,0,11.75-4.87,12.8-10.88,1.08-6.04-2.95-10.91-8.99-10.91h0Z"/></g></g><g id="LogoMark_Icon__1"><g class="cls-7"><path class="cls-2" d="M154.44,176.05c1.28,0,2.29,.41,2.95,1.19,.68,.8,.91,1.98,.67,3.32l-19.2,109.01c-.62,3.41-4.1,6.39-7.47,6.39-1.27,0-2.28-.41-2.93-1.18-.68-.8-.92-1.98-.68-3.3,4.95-28.07-1.5-54.48-18.17-74.36-16.34-19.48-40.5-30.2-68.03-30.2-1.28,0-2.3-.41-2.95-1.19-.67-.8-.9-1.95-.66-3.29,.59-3.41,4.07-6.39,7.43-6.39h109.05m0-5.46H45.39c-6.01,0-11.75,4.87-12.81,10.91-1.08,6.01,2.95,10.88,8.99,10.88,54.1,0,90.39,44.02,80.83,98.16-1.05,6.01,2.95,10.88,8.99,10.88s11.75-4.87,12.84-10.88l19.21-109.04c1.08-6.04-2.95-10.91-8.99-10.91h0ZM225.02,23.35c1.26,0,2.27,.41,2.92,1.18,.68,.81,.93,2,.7,3.33-4.95,28.05,1.5,54.45,18.17,74.33,16.34,19.48,40.51,30.22,68.06,30.22h27.26c1.25,0,2.26,.4,2.92,1.18,.67,.8,.91,1.98,.67,3.34-.59,3.39-4.06,6.37-7.43,6.37H201.93c-1.26,0-2.27-.41-2.92-1.19-.68-.8-.92-1.98-.69-3.29l19.24-109.06c.59-3.41,4.08-6.4,7.46-6.4m0-5.46c-6.04,0-11.78,4.87-12.84,10.91l-19.24,109.05c-1.05,6.01,2.98,10.88,8.99,10.88h136.34c6.01,0,11.75-4.87,12.8-10.88,1.08-6.04-2.95-10.91-8.96-10.91h-27.26c-54.13,0-90.41-44.03-80.86-98.14,1.05-6.04-2.97-10.91-8.99-10.91h0Zm136.64,158.15c1.28,0,2.29,.41,2.95,1.19,.68,.8,.91,1.98,.67,3.33-.59,3.39-4.07,6.36-7.43,6.36h-54.53c-56.64,0-110.85,46.06-120.86,102.66-4.94,27.98,1.47,54.32,18.04,74.17,16.23,19.45,40.27,30.23,67.98,30.37,37.4-1.81,66.18-19.84,83.25-52.14,1.6-3.03,3.04-6.24,4.34-9.7,1.21-3.55,2.55-7.76,3.33-12.14l-5.37-.95,5.53,.02c2.81-16.86-1.2-32.72-11.31-44.64-9.92-11.71-24.5-18.16-41.05-18.16-26.84,0-52.49,21.79-57.19,48.57-1.91,10.69,.58,20.79,6.99,28.46,6.31,7.53,15.59,11.68,26.14,11.68,.38,0,.66,.08,.8,.24,.15,.18,.2,.55,.12,.98-.29,1.61-2.05,3.14-3.62,3.14-11.29,0-21.12-4.31-27.69-12.16-6.75-8.04-9.33-18.85-7.27-30.44,5.3-30.22,34.2-54.82,64.42-54.82,17.4,0,32.61,6.69,42.8,18.82,10.45,12.46,14.48,29.16,11.34,47.03-10.5,59.45-65.4,87.14-99.2,87.14-30.02,0-56.26-11.57-73.89-32.58-18.03-21.5-24.97-50.26-19.54-80.98l19.2-109.02c.62-3.42,4.1-6.42,7.47-6.42h163.58m0-5.46H198.09c-6.04,0-11.75,4.87-12.84,10.91l-19.21,109.04c-11.69,66.16,32.64,119.96,98.8,119.96,35.53,0,93.6-29.52,104.57-91.65,7-39.86-19.69-72.26-59.51-72.26-32.73,0-64.05,26.6-69.8,59.34-4.78,26.99,13.31,48.99,40.34,48.99,4.21,0,8.24-3.43,8.99-7.63,.75-4.24-2.07-7.63-6.28-7.63-18.61,0-31.08-15.15-27.77-33.73,4.27-24.32,27.53-44.07,51.82-44.07,31.23,0,52.18,25.28,46.98,56.45-.06,.3-.09,.57-.15,.87-.69,3.88-1.86,7.63-3.13,11.33-1.14,3.04-2.46,6.01-4,8.93-16.77,31.74-45.12,47.61-78.69,49.23-53.86-.27-89.9-44.19-80.38-98.14,9.56-54.13,61.35-98.16,115.48-98.16h54.53c6.01,0,11.75-4.87,12.8-10.88,1.08-6.04-2.95-10.91-8.99-10.91h0Z"/></g></g></g></g></g></g></svg>